<svg width="20" height="15" fill="none" xmlns="http://www.w3.org/2000/svg"><path d="M18.242.562H1.758C.787.562 0 1.336 0 2.282v10.321c0 .951.792 1.72 1.758 1.72h16.484c.963 0 1.758-.766 1.758-1.72V2.282c0-.944-.784-1.72-1.758-1.72zm-.246 1.146l-6.753 6.574A1.766 1.766 0 0110 8.786c-.47 0-.91-.179-1.244-.505L2.004 1.708h15.992zM1.172 12.37V2.516l5.064 4.93-5.064 4.924zm.833.806l5.062-4.922.861.839c.554.542 1.29.84 2.072.84.783 0 1.518-.298 2.07-.839l.863-.84 5.062 4.922H2.005zm16.823-.806l-5.064-4.925 5.064-4.93v9.855z" fill="#fff"/></svg>