<svg version="1.0" xmlns="http://www.w3.org/2000/svg" width="682.667" height="682.667" viewBox="0 0 512 512"><path d="M253 4.3c-3 1.9-13.4 8-23 13.7-9.6 5.6-19.1 11.3-21 12.5-1.9 1.2-12.5 7.5-23.5 14s-21.3 12.6-23 13.6c-1.6 1-5 3-7.5 4.4-2.5 1.4-5.4 3.1-6.5 3.8-3.6 2.3-13.9 8.4-34 20.2-11 6.5-22.8 13.5-26.2 15.6-3.4 2.2-6.5 3.9-6.9 3.9-.3 0-2.9 1.5-5.7 3.4-2.9 1.8-7.1 4.4-9.4 5.7-3.2 1.8-4.3 3-4.4 4.9-.1 3.5-.1 121 0 123.7.1 1.8 5.8 5.6 31.9 21.1 37.7 22.5 36.4 21.8 43.8 26.2 3.3 1.9 21.6 12.8 40.8 24.2 19.1 11.4 35.2 20.8 35.6 20.8.5 0 1 .3 1.2.7.2.5 1.5 1.5 3.1 2.3 1.5.8 9.6 5.6 18 10.6 8.3 5 16.3 9.7 17.6 10.5 1.4.8 3 1.8 3.5 2.2.6.4 3.8 2.4 7.1 4.3l6 3.5 3.5-1.9c5.7-3 19.1-10.2 25-13.5 3-1.6 7.5-4.1 10-5.4 9.9-5.2 17.5-9.5 18.4-10.3.5-.5-5.6-5.1-13.8-10.4-8-5.2-21.9-14.3-30.8-20.2-9-5.9-18.1-11.9-20.3-13.3-2.2-1.4-4.1-2.9-4.3-3.4-.2-.4-.8-.7-1.3-.7-.6 0-1.5-.5-2.2-1-.7-.6-6.1-4.3-12.2-8.2-6-4-24.3-15.9-40.5-26.6-43.3-28.6-59.1-38.8-71-46l-8.5-5.1v-27c0-16.5.4-27.4 1-27.9.6-.6 4.6-2.9 9-5.2 14.2-7.5 28.8-15.7 37.5-20.8 4.7-2.8 12.9-7.6 18.3-10.7 5.4-3.1 21.1-12.4 35-20.7 13.8-8.3 26.6-15.8 28.5-16.8l3.3-1.8 8.7 5c4.8 2.8 10.2 5.9 12.1 7 1.8 1 11.1 6.3 20.5 11.7 9.4 5.5 18.7 10.8 20.6 11.9 1.9 1.1 7.5 4.3 12.3 7.1 4.9 2.8 9.3 5.1 9.8 5.1s.9.4.9.8 1.6 1.4 3.5 2.1c1.9.7 3.5 1.6 3.5 2 0 .4 1.6 1.3 3.5 2.1s3.5 1.7 3.5 2.2c0 .4.4.8.9.8.6 0 3.6 1.5 6.8 3.4 3.2 1.9 8.1 4.7 10.9 6.2 2.7 1.6 8.4 4.8 12.5 7.2l7.4 4.3-.1 16.7c-.2 15.9.4 20.2 2.7 20.2.5 0 3.8 1.7 7.2 3.9 14.2 8.8 38.8 23.1 39.7 23.1.6 0 1 .4 1 1 0 .5.5 1 1 1 .6 0 2.8 1.1 5 2.5l4 2.5V117.5l-3.3-2.1c-1.7-1.2-42.1-25.5-89.7-53.9-47.6-28.5-88.1-52.8-90-54-3.6-2.3-10.9-6.5-11.3-6.5-.2 0-2.7 1.5-5.7 3.3z"/><path d="M226.4 152.1c-8.2 5.1-20.4 12.5-27.1 16.7-6.8 4.1-12.3 7.8-12.3 8.2 0 .6 12.7 8.8 19.5 12.6 1.1.6 10.1 6.1 20 12.1 37.6 23 78.1 47.7 80.7 49.2 12.2 7.1 81.4 49.6 81.8 50.2.7 1 .6 65.6 0 66.2-.3.2-6.8 4.4-14.5 9.2-30.6 19.3-113.9 65.5-118 65.5-.6 0-4.2-2.6-8.1-5.9-3.8-3.2-14.1-10.2-22.9-15.6-8.8-5.3-17.6-10.7-19.5-12-1.9-1.2-15-9.2-29-17.8-14-8.5-31.3-19.1-38.5-23.5l-13-8-.3-18.6-.2-18.5-31.2-15.6c-17.1-8.5-31.3-15.3-31.6-15-.7.6-.8 3.8-1.6 39.5-.3 14-.9 33.8-1.1 44l-.6 18.5 8.3 5c4.6 2.7 8.7 5.2 9.2 5.4.5.2 6.8 4 14 8.4s14.7 8.9 16.6 9.9c1.9 1.1 22 13.1 44.5 26.6 22.6 13.5 42.2 25.2 43.7 26.1 1.5.9 8 4.7 14.4 8.6 6.4 3.8 13.8 8.2 16.3 9.7 2.5 1.6 7.3 4.4 10.6 6.3 6.2 3.7 6.5 3.9 15.3 9.3l5.4 3.3 7.2-4.2c3.9-2.3 8.8-5.3 10.8-6.6 2.1-1.2 4.1-2.3 4.6-2.3.4 0 1.3-.5 2-1.2s3.7-2.6 6.7-4.3c3-1.6 18.4-10.7 34.1-20 15.8-9.4 30.3-17.9 32.3-19 2-1.1 8.1-4.7 13.6-8 12.6-7.5 11.5-6.9 23.6-14 5.7-3.3 12.2-7.1 14.5-8.5 2.3-1.4 13.7-8.1 25.3-14.9l21.1-12.4-.2-66.4-.3-66.4-13-7.5c-7.1-4.2-15.9-9.2-19.5-11.1-3.6-2-7.6-4.3-9-5.3-1.4-.9-3.8-2.4-5.5-3.2-1.6-.8-14.9-8.4-29.5-16.8-29.5-17-84-48.3-91-52.2-2.5-1.4-13.2-7.6-23.9-13.7-10.6-6.1-19.4-11.1-19.5-11.1-.1 0-6.9 4.1-15.2 9.1z"/></svg>