<svg width="70" height="71" fill="none" xmlns="http://www.w3.org/2000/svg"><path d="M69.865 38.774c-.628-6.586-3.453-12.794-7.953-17.483-3.845-4.006-8.553-6.58-13.505-7.725V9.947c2.023-.524 3.526-2.432 3.526-4.699 0-2.67-2.085-4.842-4.648-4.842H37.44c-2.563 0-4.649 2.172-4.649 4.842 0 2.267 1.504 4.175 3.527 4.7v3.628c-4.938 1.15-9.63 3.72-13.464 7.716a28.557 28.557 0 00-2.321 2.744 1.272 1.272 0 00-.104-.005h-9.743c-.755 0-1.367.637-1.367 1.424 0 .787.612 1.424 1.367 1.424h7.986a29.134 29.134 0 00-2.426 5.475H1.367C.612 32.354 0 32.99 0 33.778c0 .787.612 1.424 1.367 1.424h14.108a30.1 30.1 0 00-.679 5.475H8.75c-.755 0-1.367.638-1.367 1.424 0 .787.612 1.424 1.367 1.424h6.09c.115 1.844.4 3.678.853 5.475H6.836c-.755 0-1.367.638-1.367 1.424 0 .787.612 1.425 1.367 1.425h9.73a28.76 28.76 0 006.289 10.13c4.504 4.693 10.47 7.636 16.799 8.288.903.093 1.807.139 2.71.139a26.886 26.886 0 0015.071-4.641c.633-.43.812-1.312.4-1.97a1.335 1.335 0 00-1.892-.417c-9.783 6.637-22.886 5.202-31.155-3.412-9.702-10.107-9.702-26.553 0-36.66 9.702-10.107 25.488-10.107 35.19 0 8.258 8.603 9.643 22.24 3.294 32.427-.412.66-.231 1.542.402 1.97.633.43 1.48.241 1.89-.418 3.394-5.443 4.92-12.017 4.301-18.511zM35.527 5.248c0-1.1.858-1.994 1.914-1.994h9.844c1.055 0 1.914.895 1.914 1.994 0 1.1-.859 1.994-1.914 1.994H37.44c-1.056 0-1.914-.894-1.914-1.994zm3.526 7.839V10.09h6.62v2.99a26.753 26.753 0 00-6.62.006z" fill="#fff"/><path d="M60.946 59.548c-.36 0-.712.152-.966.417a1.46 1.46 0 00-.4 1.007c0 .375.144.742.4 1.007.254.266.606.417.966.417s.711-.15.967-.417a1.466 1.466 0 000-2.014 1.352 1.352 0 00-.967-.417zM42.383 19.54c-11.695 0-21.21 9.912-21.21 22.096 0 12.183 9.515 22.094 21.21 22.094s21.21-9.911 21.21-22.094c0-12.184-9.515-22.096-21.21-22.096zm0 41.342c-10.187 0-18.475-8.634-18.475-19.246 0-10.613 8.288-19.247 18.475-19.247 10.187 0 18.475 8.634 18.475 19.247 0 10.612-8.288 19.246-18.475 19.246z" fill="#fff"/><path d="M51.031 30.611l-6.771 7.055a4.084 4.084 0 00-3.754 0l-3.03-3.157a1.33 1.33 0 00-1.934 0 1.467 1.467 0 000 2.014l3.03 3.157a4.55 4.55 0 00-.438 1.955c0 2.44 1.906 4.426 4.249 4.426s4.248-1.986 4.248-4.426a4.55 4.55 0 00-.438-1.955l6.573-6.847.199-.207a1.467 1.467 0 000-2.014 1.329 1.329 0 00-1.934 0zm-8.648 12.601c-.835 0-1.514-.707-1.514-1.577s.68-1.577 1.514-1.577c.835 0 1.514.708 1.514 1.577 0 .87-.68 1.578-1.514 1.578zm14.619-2.984h-1.267c-.755 0-1.367.638-1.367 1.425 0 .786.612 1.424 1.367 1.424h1.267c.755 0 1.367-.638 1.367-1.424 0-.787-.612-1.425-1.367-1.425zm-27.97-.034h-1.266c-.755 0-1.368.638-1.368 1.425 0 .786.613 1.424 1.368 1.424h1.266c.755 0 1.367-.638 1.367-1.424 0-.787-.612-1.425-1.367-1.425zM42.4 29.15c.755 0 1.368-.637 1.368-1.424v-1.32c0-.786-.613-1.424-1.368-1.424-.755 0-1.367.638-1.367 1.425v1.319c0 .787.612 1.424 1.367 1.424zm-.033 24.97c-.755 0-1.367.638-1.367 1.424v1.32c0 .786.612 1.424 1.367 1.424s1.367-.638 1.367-1.424v-1.32c0-.786-.612-1.424-1.367-1.424zm-41-5.12c-.36 0-.712.151-.966.416a1.466 1.466 0 000 2.014c.254.265.607.418.966.418.36 0 .712-.153.967-.418a1.466 1.466 0 000-2.014A1.35 1.35 0 001.367 49z" fill="#fff"/></svg>