<svg width="18" height="18" fill="none" xmlns="http://www.w3.org/2000/svg"><path d="M9 0a6.657 6.657 0 00-6.65 6.65c0 1.206.542 2.505.565 2.56.175.414.52 1.059.768 1.437l4.56 6.908c.186.283.462.445.757.445s.571-.162.758-.445l4.56-6.908c.248-.378.593-1.023.768-1.438.022-.054.563-1.352.563-2.56A6.657 6.657 0 009 0zm5.364 8.906a9.831 9.831 0 01-.7 1.31l-4.56 6.908c-.09.137-.118.137-.208 0l-4.56-6.908a9.827 9.827 0 01-.7-1.31c-.007-.017-.503-1.212-.503-2.257A5.874 5.874 0 019 .782a5.874 5.874 0 015.867 5.867c0 1.047-.498 2.245-.503 2.257z" fill="#000"/><path d="M9 3.13a3.524 3.524 0 00-3.52 3.52c0 1.94 1.579 3.52 3.52 3.52s3.52-1.58 3.52-3.52A3.524 3.524 0 009 3.13zm0 6.258A2.741 2.741 0 016.262 6.65 2.741 2.741 0 019 3.912a2.741 2.741 0 012.738 2.738A2.741 2.741 0 019 9.388z" fill="#000"/></svg>