<svg width="20" height="20" fill="none" xmlns="http://www.w3.org/2000/svg"><path d="M18.242 2.969H1.758A1.76 1.76 0 000 4.727v10.546a1.76 1.76 0 001.758 1.758h16.484A1.76 1.76 0 0020 15.273V4.727a1.76 1.76 0 00-1.758-1.758zm-.246 1.172l-6.753 6.717a1.747 1.747 0 01-1.243.515c-.47 0-.91-.183-1.244-.516L2.004 4.141h15.992zM1.172 15.035V4.965l5.064 5.038-5.064 5.032zm.833.824l5.062-5.03.861.858a2.91 2.91 0 002.072.858 2.91 2.91 0 002.07-.857l.863-.858 5.062 5.03H2.005zm16.823-.824l-5.064-5.032 5.064-5.037v10.069z" fill="#fff"/></svg>