<svg width="20" height="20" fill="none" xmlns="http://www.w3.org/2000/svg"><path d="M4.053 13.267a21.23 21.23 0 007.084 5.41c1.036.479 2.421 1.047 3.965 1.144.095.004.187.008.283.008 1.035 0 1.867-.349 2.545-1.067a.088.088 0 00.017-.02c.241-.284.516-.54.803-.811.195-.183.395-.373.587-.568.886-.9.886-2.044-.009-2.916l-2.5-2.437c-.424-.43-.932-.657-1.464-.657-.533 0-1.044.227-1.481.653l-1.49 1.452a8.019 8.019 0 00-.411-.211 5.178 5.178 0 01-.458-.243c-1.356-.84-2.587-1.935-3.765-3.342-.594-.734-.994-1.35-1.273-1.98.392-.344.758-.705 1.111-1.058.125-.126.254-.251.383-.377.45-.438.69-.945.69-1.46s-.237-1.022-.69-1.46L6.74 2.118c-.145-.142-.283-.28-.424-.421-.275-.276-.562-.56-.845-.816C5.043.471 4.54.257 4.007.257c-.528 0-1.036.215-1.48.628L.97 2.402a3.084 3.084 0 00-.952 1.996c-.08.969.104 1.999.578 3.244.728 1.926 1.826 3.715 3.457 5.625zm-3.02-8.784c.05-.54.262-.99.661-1.38l1.548-1.508c.241-.227.507-.345.765-.345.254 0 .512.118.749.353.279.252.54.515.824.795.141.142.287.284.432.43l1.24 1.209c.258.251.39.507.39.758s-.132.507-.39.758c-.13.126-.258.256-.387.382-.387.38-.749.742-1.148 1.087l-.02.02c-.346.336-.292.657-.209.9l.013.033c.32.75.765 1.464 1.46 2.315 1.248 1.5 2.562 2.665 4.01 3.561.179.114.37.203.549.292.166.081.32.158.458.243l.045.025c.138.069.27.101.404.101.333 0 .549-.207.62-.276l1.555-1.516c.242-.236.504-.361.762-.361.316 0 .574.19.736.36l2.508 2.442c.5.487.495 1.014-.012 1.529a15.02 15.02 0 01-.553.54c-.291.275-.595.56-.87.88-.478.502-1.048.738-1.784.738-.071 0-.146-.005-.217-.008-1.364-.086-2.633-.605-3.586-1.047a20.167 20.167 0 01-6.743-5.15c-1.551-1.821-2.595-3.517-3.286-5.334-.429-1.115-.59-2.011-.524-2.826z" fill="#fff"/></svg>