<svg width="20" height="20" fill="none" xmlns="http://www.w3.org/2000/svg"><g clip-path="url(#clip0)" fill="#fff"><path d="M10 .6C5.926.6 2.612 3.748 2.612 7.619c0 1.274.601 2.644.627 2.702.194.438.577 1.118.853 1.517l5.066 7.292c.207.299.514.47.842.47.328 0 .634-.171.842-.47l5.066-7.292c.277-.399.66-1.08.854-1.517.025-.057.626-1.428.626-2.702C17.388 3.749 14.074.6 10 .6zm5.96 9.4c-.173.393-.53 1.026-.778 1.384l-5.066 7.292c-.1.144-.132.144-.232 0l-5.066-7.292A10.22 10.22 0 014.04 10c-.008-.017-.559-1.278-.559-2.381 0-3.415 2.924-6.193 6.519-6.193 3.594 0 6.519 2.778 6.519 6.193 0 1.104-.553 2.37-.559 2.382z"/><path d="M10 3.903c-2.157 0-3.911 1.667-3.911 3.716 0 2.049 1.754 3.716 3.911 3.716s3.911-1.667 3.911-3.716c0-2.049-1.754-3.716-3.911-3.716zm0 6.606c-1.677 0-3.042-1.296-3.042-2.89S8.323 4.73 10 4.73c1.677 0 3.042 1.296 3.042 2.89S11.677 10.51 10 10.51z"/></g><defs><clipPath id="clip0"><path fill="#fff" transform="translate(0 .6)" d="M0 0h20v19H0z"/></clipPath></defs></svg>