<svg width="212" height="63" fill="none" xmlns="http://www.w3.org/2000/svg"><path d="M60.252 18.789H48.743v-6.734h31.34v6.734h-11.51v28.978h-8.32V18.789zm46.187 21.328H89.742l-3.184 7.653H78.03l16.028-35.715h8.22L118.36 47.77h-8.734l-3.187-7.653zm-2.623-6.277l-5.702-13.675-5.702 13.675h11.404zm18.289-21.785h8.325v28.978h18.032v6.734h-26.357V12.055z" fill="#B1B1B1"/><path d="M181.996 40.906v6.733h-27.178v-5.357l13.872-13.01c1.472-1.394 2.467-2.593 2.981-3.598.513-1.003.77-1.997.77-2.985 0-1.43-.487-2.524-1.463-3.29-.977-.765-2.408-1.147-4.29-1.147-1.577 0-2.999.297-4.265.893-1.266.596-2.33 1.489-3.184 2.678l-6.063-3.877c1.403-2.073 3.339-3.699 5.806-4.873 2.467-1.175 5.293-1.76 8.477-1.76 2.67 0 5.009.434 7.013 1.303 2.005.866 3.561 2.091 4.675 3.672 1.111 1.581 1.67 3.444 1.67 5.586 0 1.94-.413 3.758-1.234 5.458-.821 1.703-2.414 3.64-4.779 5.817l-8.271 7.754h15.463v.003zm27.486-10.943c1.679 1.821 2.518 4.073 2.518 6.76 0 2.077-.547 3.99-1.643 5.74-1.096 1.753-2.766 3.156-5.009 4.21-2.243 1.052-4.991 1.58-8.247 1.58-2.536 0-5.027-.332-7.476-.993-2.449-.665-4.531-1.608-6.243-2.833l3.238-6.327c1.368 1.02 2.954 1.812 4.752 2.373 1.798.56 3.638.842 5.523.842 2.088 0 3.734-.4 4.932-1.198 1.197-.798 1.798-1.931 1.798-3.394 0-2.925-2.243-4.387-6.73-4.387h-3.802v-5.458l7.398-8.318H185.18v-6.635h25.174v5.357l-8.118 9.184c3.151.51 5.567 1.676 7.246 3.497z" fill="#FFE500"/><path d="M126.944 61.418c3.477-33.214 27.417-19.694 52.573-22.132.212 33.793-28.394 19.433-52.573 22.132z" fill="#A91841"/><path d="M142.9 45.213c.822.386 1.455.938 1.9 1.647.445.712.666 1.554.666 2.527 0 .961-.221 1.8-.666 2.518-.445.718-1.075 1.267-1.9 1.647-.821.38-1.789.57-2.906.57h-2.536v3.612h-2.915V44.632h5.451c1.117.003 2.085.196 2.906.581zm-1.069 5.85c.457-.395.684-.952.684-1.676 0-.736-.227-1.302-.684-1.694-.457-.391-1.123-.59-1.998-.59h-2.375v4.547h2.375c.875.003 1.541-.193 1.998-.587zm13.728 6.674l-2.428-3.648h-2.68v3.648h-2.915V44.635h5.451c1.117 0 2.085.193 2.907.581.821.386 1.454.938 1.899 1.647.445.712.666 1.554.666 2.527 0 .973-.224 1.812-.675 2.518-.451.706-1.087 1.246-1.917 1.62l2.825 4.212h-3.133v-.003zm-.738-10.044c-.457-.394-1.123-.59-1.998-.59h-2.375v4.568h2.375c.875 0 1.541-.199 1.998-.6.457-.4.684-.96.684-1.684 0-.736-.227-1.3-.684-1.694zm8.501 9.388a6.403 6.403 0 01-2.464-2.423c-.595-1.03-.89-2.187-.89-3.474 0-1.284.295-2.444.89-3.473a6.404 6.404 0 012.464-2.424c1.048-.587 2.228-.881 3.536-.881 1.309 0 2.483.294 3.528.881a6.466 6.466 0 012.464 2.424c.601 1.029.899 2.186.899 3.473 0 1.285-.298 2.444-.899 3.474a6.465 6.465 0 01-2.464 2.423c-1.042.587-2.219.881-3.528.881-1.308-.003-2.485-.294-3.536-.88zm5.553-2.237a3.76 3.76 0 001.412-1.489c.344-.637.514-1.358.514-2.17 0-.81-.17-1.535-.514-2.172a3.762 3.762 0 00-1.412-1.49 3.883 3.883 0 00-2.017-.533 3.88 3.88 0 00-2.016.534c-.6.356-1.069.851-1.413 1.489-.34.638-.513 1.361-.513 2.171 0 .813.17 1.534.513 2.171a3.77 3.77 0 001.413 1.49 3.88 3.88 0 002.016.534c.744 0 1.416-.178 2.017-.535z" fill="#fff"/><path d="M37.635 17.338v3.667l6.87 4.046V13.123L22.575 0 .3 13.185v14.446l23.596 14.031 6.572-3.56-19.415-12.755-3.286-2.076-.597-.297v-6.229l3.883-2.077 6.57-3.856 4.481-2.67 15.532 8.9v.296z" fill="#FFE500"/><path d="M14.337 19.98l6.273-3.855L44.505 29.77v14.906L22.402 57.653 0 44.323l.299-11.587 7.168 3.56v4.153l13.143 8.009 1.666 1.397 3.412-1.694 8.363-4.746 3.286-2.076v-7.416l-23-13.942z" fill="#FFE500"/></svg>