<svg width="70" height="70" fill="none" xmlns="http://www.w3.org/2000/svg"><path d="M35.03 6.645c-.877 0-1.76.058-2.625.172-.562.073-.964.639-.897 1.262.067.623.578 1.07 1.139.994a18.357 18.357 0 012.384-.156c11.04 0 20.023 9.966 20.023 22.214 0 12.25-8.982 22.214-20.023 22.214-4.128 0-8.091-1.382-11.461-3.996-3.296-2.557-5.798-6.1-7.235-10.246-.203-.586-.796-.879-1.325-.653-.529.225-.793.882-.59 1.468 1.585 4.57 4.342 8.475 7.973 11.292 3.717 2.883 8.087 4.407 12.638 4.407 12.171 0 22.074-10.984 22.074-24.486S47.202 6.645 35.03 6.645zm-19.813 27.72a24.925 24.925 0 01-.21-3.234c0-4.572 1.242-8.963 3.592-12.698 2.298-3.652 5.483-6.428 9.21-8.028.529-.226.791-.885.587-1.47-.205-.585-.799-.876-1.327-.649-4.11 1.764-7.62 4.823-10.152 8.847-2.591 4.118-3.96 8.959-3.96 13.998 0 1.193.077 2.39.23 3.562.075.565.514.973 1.014.973.05 0 .1-.004.15-.012.56-.09.948-.668.866-1.289z" fill="#fff"/><path d="M50.086 39.587c.52.249 1.123-.017 1.348-.593a21.544 21.544 0 001.461-7.862c0-10.927-8.014-19.817-17.865-19.817-9.85 0-17.864 8.89-17.864 19.817S25.18 50.949 35.03 50.949c5.352 0 10.376-2.629 13.786-7.212.36-.484.298-1.2-.14-1.6-.436-.399-1.083-.33-1.443.154-3.018 4.058-7.466 6.385-12.203 6.385-8.72 0-15.814-7.87-15.814-17.544S26.31 13.587 35.03 13.587c8.72 0 15.814 7.87 15.814 17.545 0 2.419-.435 4.76-1.293 6.96-.225.577.015 1.246.535 1.495z" fill="#fff"/><path d="M69.7 56.338l-9.757-10.823c2.032-4.305 3.182-9.198 3.182-14.383C63.125 13.966 50.522 0 35.031 0 19.539 0 6.936 13.966 6.936 31.132c0 5.167 1.142 10.044 3.16 14.338L.3 56.338a1.222 1.222 0 00-.268 1.085c.09.389.358.696.706.809l7.641 2.473 2.23 8.477c.1.385.379.683.73.782.084.024.17.036.254.036a.98.98 0 00.726-.333l9.81-10.884c3.866 2.223 8.254 3.48 12.902 3.48 4.631 0 9.005-1.248 12.86-3.457l9.79 10.86a.978.978 0 00.726.334c.085 0 .17-.012.255-.035.35-.1.628-.398.73-.783l2.229-8.477 7.641-2.473c.348-.113.616-.42.706-.809a1.223 1.223 0 00-.268-1.085zm-66.727.25l8.177-9.07a31.226 31.226 0 003.323 4.812L8.91 58.51l-5.937-1.921zm9.12 10.114l-1.733-6.586 5.564-6.18a28.793 28.793 0 004.357 3.683l-8.189 9.083zm-3.107-35.57c0-15.913 11.684-28.86 26.045-28.86 14.36 0 26.044 12.947 26.044 28.86S49.39 59.99 35.03 59.99c-14.361 0-26.045-12.946-26.045-28.86zm48.922 35.57l-8.165-9.057a28.781 28.781 0 004.362-3.676l5.535 6.147-1.733 6.586zm3.182-8.193l-5.531-6.144a31.18 31.18 0 003.328-4.806l8.14 9.029-5.937 1.92z" fill="#fff"/><path d="M45.195 28.13c-.12-.412-.441-.711-.828-.773l-5.811-.936-2.603-5.93c-.172-.391-.53-.64-.923-.64-.392 0-.75.249-.922.64l-2.603 5.93-5.811.936c-.387.062-.708.361-.828.773-.121.411-.02.863.26 1.165l4.21 4.544-.994 6.417c-.066.426.092.857.408 1.11a.943.943 0 001.08.087l5.2-3.03 5.2 3.03a.945.945 0 001.08-.086c.316-.255.474-.685.408-1.112l-.993-6.416 4.21-4.545c.28-.301.38-.753.26-1.164zm-6.287 4.498a1.214 1.214 0 00-.295 1.006l.733 4.737-3.838-2.237a.947.947 0 00-.955 0l-3.838 2.237.733-4.737a1.215 1.215 0 00-.295-1.005l-3.108-3.355 4.292-.69a1.04 1.04 0 00.775-.628l1.918-4.371 1.92 4.37c.148.34.438.574.774.628l4.292.691-3.108 3.354z" fill="#fff"/></svg>