<svg width="10" height="10" fill="none" xmlns="http://www.w3.org/2000/svg"><g clip-path="url(#clip0)"><path d="M9.267 7.17l-1.23-1.231c-.44-.44-1.188-.264-1.364.307-.132.396-.572.616-.968.528-.88-.22-2.067-1.363-2.286-2.287-.132-.395.131-.835.527-.967.572-.176.748-.924.308-1.363L3.023.925c-.352-.308-.88-.308-1.188 0L1 1.761c-.836.88.088 3.21 2.155 5.277 2.067 2.067 4.397 3.034 5.277 2.155l.835-.836c.308-.352.308-.88 0-1.187z" fill="#fff"/></g><defs><clipPath id="clip0"><path fill="#fff" transform="translate(.588 .589)" d="M0 0h8.824v8.824H0z"/></clipPath></defs></svg>