<svg width="261" height="77" fill="none" xmlns="http://www.w3.org/2000/svg"><path d="M75.095 23.672v-1H60.943V16.5h36.539v6.173H83.329v35.174h-8.234V23.672zm56.72 25.5l-.258-.612h-21.86l-.258.612-3.658 8.678h-8.27l18.801-41.351h8.822l18.864 41.35h-8.521l-3.662-8.677zm-4.146-6.23h1.508l-.587-1.39-7.012-16.598-.921-2.18-.922 2.18-7.012 16.598-.587 1.39h15.533zm32.728 8.731h21.175v6.173H151.16V16.499h8.237v35.174h1zm35.201-25.643l-5.788-3.653c1.553-1.964 3.587-3.546 6.124-4.738 2.88-1.354 6.206-2.04 9.999-2.04 3.179 0 5.916.509 8.232 1.5h.001c2.318.989 4.076 2.368 5.326 4.118 1.234 1.733 1.868 3.787 1.868 6.2 0 2.205-.474 4.261-1.415 6.185h-.001c-.928 1.9-2.778 4.15-5.651 6.76h0l-.006.006-10.171 9.412-1.874 1.734h20.569v6.177h-31.422v-5.066l16.737-15.495.004-.003c1.837-1.717 3.16-3.265 3.871-4.638.694-1.339 1.059-2.701 1.059-4.082 0-1.995-.705-3.637-2.188-4.784-1.447-1.12-3.461-1.603-5.886-1.603-2.066 0-3.961.384-5.667 1.177a10.889 10.889 0 00-3.721 2.833zm62.245 25.842h0c-1.226 1.936-3.115 3.523-5.736 4.738-2.592 1.201-5.819 1.826-9.721 1.826a34.56 34.56 0 01-8.936-1.172c-2.578-.69-4.785-1.629-6.636-2.805l3.05-5.882c1.548.995 3.279 1.785 5.183 2.37a23.958 23.958 0 007.086 1.067c2.678 0 4.919-.504 6.614-1.619 1.756-1.155 2.661-2.845 2.661-4.954 0-2.082-.835-3.746-2.527-4.835-1.617-1.04-3.915-1.49-6.748-1.49h-3.676v-5.241l8.841-9.81 1.505-1.67h-20.076V16.34h28.957v5.12l-9.729 10.863-1.222 1.365 1.81.29c3.721.594 6.465 1.934 8.338 3.94 1.877 2.01 2.827 4.493 2.827 7.523 0 2.331-.619 4.468-1.865 6.431z" stroke="#fff" stroke-width="2"/><path d="M156.11 75.415c4.276-40.315 33.716-23.904 64.652-26.863.261 41.017-34.917 23.587-64.652 26.863z" fill="#A91841"/><path d="M175.732 55.746c1.011.468 1.789 1.138 2.337 1.998.547.865.819 1.887.819 3.068 0 1.167-.272 2.186-.819 3.057-.548.871-1.323 1.537-2.337 1.998-1.01.461-2.2.692-3.574.692h-3.118v4.385h-3.585V55.04h6.703c1.374.004 2.564.238 3.574.706zm-1.315 7.1c.562-.478.842-1.155.842-2.034 0-.893-.28-1.58-.842-2.056-.562-.475-1.381-.716-2.457-.716h-2.92v5.52h2.92c1.076.003 1.895-.235 2.457-.714zm16.882 8.102l-2.986-4.43h-3.295v4.43h-3.585V55.044h6.704c1.374 0 2.564.234 3.574.706 1.01.468 1.789 1.137 2.336 1.998.547.864.819 1.887.819 3.068 0 1.18-.275 2.2-.83 3.056-.555.857-1.337 1.513-2.358 1.966l3.475 5.113h-3.854v-.003zm-.907-12.192c-.562-.479-1.381-.716-2.457-.716h-2.92v5.544h2.92c1.076 0 1.895-.24 2.457-.727.562-.486.841-1.166.841-2.045 0-.893-.279-1.577-.841-2.056zm10.454 11.395a7.83 7.83 0 01-3.03-2.941c-.731-1.25-1.095-2.654-1.095-4.217 0-1.559.364-2.967 1.095-4.216a7.83 7.83 0 013.03-2.941c1.289-.713 2.74-1.07 4.349-1.07s3.052.357 4.338 1.07a7.898 7.898 0 013.03 2.941c.739 1.25 1.106 2.654 1.106 4.216 0 1.56-.367 2.967-1.106 4.217a7.9 7.9 0 01-3.03 2.941c-1.282.713-2.729 1.07-4.338 1.07-1.609-.004-3.056-.357-4.349-1.07zm6.828-2.715a4.595 4.595 0 001.738-1.807c.422-.774.632-1.65.632-2.636 0-.983-.21-1.861-.632-2.635a4.595 4.595 0 00-1.738-1.808c-.738-.432-1.564-.648-2.479-.648s-1.741.216-2.479.648a4.595 4.595 0 00-1.738 1.808c-.419.774-.632 1.652-.632 2.635 0 .987.21 1.862.632 2.636a4.595 4.595 0 001.738 1.807c.738.432 1.564.648 2.479.648s1.741-.216 2.479-.648zM46.282 21.911v4.45l8.448 4.912V16.795L27.762.866.367 16.871v17.534l29.018 17.03 8.082-4.32L13.59 31.633l-4.04-2.52-.735-.36v-7.561l4.775-2.521 8.08-4.68 5.51-3.241 19.103 10.8v.36z" fill="#fff"/><path d="M17.631 25.152l7.714-4.68 29.386 16.562v18.092L27.549 70.88 0 54.698l.367-14.064 8.816 4.32v5.042l16.162 9.721 2.05 1.696 4.194-2.056 10.285-5.76 4.04-2.521v-9.001L17.632 25.152z" fill="#fff"/></svg>