<svg width="70" height="71" fill="none" xmlns="http://www.w3.org/2000/svg"><g clip-path="url(#clip0)" fill="#fff"><path d="M56.967 44.132a1.15 1.15 0 01-1.151-1.15v-.439c0-1.345-1.92-2.664-3.875-2.664h-4.705a1.15 1.15 0 110-2.301h4.705c2.921 0 6.176 2.04 6.176 4.965v.438a1.15 1.15 0 01-1.15 1.151zm-4.602-14.034c-.031 0-.063 0-.095-.003a1.15 1.15 0 01-1.052-1.241l.575-7.023c-.005-3.965-3.07-7.267-6.838-7.267h-5.893c-3.769 0-6.834 3.302-6.834 7.36l.57 6.93a1.15 1.15 0 11-2.293.188l-.574-7.023c-.004-5.421 4.094-9.756 9.131-9.756h5.892c5.038 0 9.136 4.335 9.136 9.662l-.58 7.117a1.15 1.15 0 01-1.145 1.056z"/><path d="M42.008 41.03a12.64 12.64 0 01-3.976-.635 1.15 1.15 0 01.733-2.183c1.004.338 2.125.517 3.243.517 2.608 0 5.02-.944 6.297-2.465 1.74-2.074 2.908-5.034 2.908-7.365v-4.637c0-.604-.124-1.008-.367-1.196-.867-.676-3.623.024-6.054.641-2.222.564-4.519 1.148-6.6 1.148-2.59 0-4.333-.931-5.376-1.572-.008.258-.013.578-.013.98v4.636c0 1.68.626 3.768 1.674 5.588a1.15 1.15 0 11-1.994 1.148c-1.26-2.186-1.981-4.641-1.981-6.736v-4.637c0-1.957.044-3.088.954-3.59.812-.455 1.58.034 2.257.458.9.568 2.26 1.424 4.48 1.424 1.792 0 3.948-.548 6.032-1.077 3.37-.856 6.276-1.596 8.033-.228.834.648 1.256 1.662 1.256 3.013V28.9c0 2.876-1.352 6.347-3.447 8.844-1.726 2.058-4.74 3.287-8.059 3.287zm10.501 14.252a1.151 1.151 0 01-.25-2.273l13.656-3.057c.506-.09.903-.342 1.167-.72.265-.377.367-.834.288-1.288a1.737 1.737 0 00-1.103-1.324 1.15 1.15 0 01-.68-1.479 1.149 1.149 0 011.478-.678 4.044 4.044 0 012.572 3.083 3.995 3.995 0 01-.67 3.008 4.002 4.002 0 01-2.603 1.654l-13.603 3.047a1.207 1.207 0 01-.252.027z"/><path d="M36.941 61.741h-8.74c-.084 0-.168-.008-.25-.027l-10.355-2.301a1.151 1.151 0 01.498-2.247l10.233 2.274h8.614c4.49 0 8.896-1.545 12.403-4.35.03-.026.063-.048.096-.07l17.031-10.95c.055-.037.113-.067.173-.093a1.72 1.72 0 00.927-.941 1.727 1.727 0 00-2.274-2.237L48.2 47.847a1.152 1.152 0 01-.438.087H25.899a1.15 1.15 0 01-.986-1.743l3.452-5.753a1.15 1.15 0 01.986-.559h4.603a4.61 4.61 0 004.457-3.452H26.276L10.579 47.94a1.153 1.153 0 01-1.608-.248 1.152 1.152 0 01.248-1.609l16-11.733c.197-.145.435-.223.68-.223h13.808c.635 0 1.15.515 1.15 1.151a6.912 6.912 0 01-6.903 6.904h-3.95l-2.072 3.452h19.602l16.875-6.957c2.034-.864 4.402.096 5.27 2.14a4 4 0 01.025 3.082 4 4 0 01-2.063 2.157l-16.906 10.87a22.247 22.247 0 01-13.794 4.816z"/><path d="M12.45 68.253a1.155 1.155 0 01-.934-.477L.218 52.102a1.153 1.153 0 01.26-1.606l7.466-5.383a1.155 1.155 0 011.607.261l11.298 15.672a1.15 1.15 0 01-.26 1.607l-7.466 5.383a1.154 1.154 0 01-.673.217zM2.757 51.69l9.954 13.806 5.6-4.038-9.954-13.805-5.6 4.037z"/><path d="M15.543 60.591a2.301 2.301 0 11-4.602 0 2.301 2.301 0 014.602 0zm26.465-51.78a1.15 1.15 0 01-1.15-1.15V3.058a1.15 1.15 0 112.3 0v4.603a1.15 1.15 0 01-1.15 1.15zm4.602 0a1.15 1.15 0 01-.813-1.964l4.027-4.027a1.15 1.15 0 011.628 1.627l-4.027 4.027a1.145 1.145 0 01-.814.337zm-9.204 0c-.295 0-.589-.112-.813-.337L33.14 5.022a1.15 1.15 0 111.627-1.627l3.452 3.452a1.15 1.15 0 01-.813 1.964z"/></g><defs><clipPath id="clip0"><path fill="#fff" transform="translate(0 .003)" d="M0 0h70v70H0z"/></clipPath></defs></svg>