<svg width="18" height="18" viewBox="0 0 18 18" fill="none" xmlns="http://www.w3.org/2000/svg">
<path d="M8.99999 0C5.3335 0 2.35071 2.98279 2.35071 6.64928C2.35071 7.85632 2.89204 9.1545 2.91472 9.20926C3.08956 9.62425 3.43454 10.2688 3.6833 10.6467L8.24237 17.5545C8.42894 17.8377 8.70508 18 8.99999 18C9.29491 18 9.57105 17.8377 9.75762 17.5549L14.3171 10.6467C14.5662 10.2688 14.9108 9.62425 15.0857 9.20926C15.1083 9.15489 15.6493 7.85671 15.6493 6.64928C15.6493 2.98279 12.6665 0 8.99999 0ZM14.3644 8.90574C14.2083 9.27771 13.8872 9.87731 13.6639 10.216L9.10443 17.1243C9.01447 17.2608 8.98591 17.2608 8.89595 17.1243L4.3365 10.216C4.11316 9.87731 3.79204 9.27731 3.63598 8.90534C3.62933 8.88931 3.13298 7.69439 3.13298 6.64928C3.13298 3.41421 5.76492 0.782269 8.99999 0.782269C12.2351 0.782269 14.867 3.41421 14.867 6.64928C14.867 7.69596 14.3695 8.894 14.3644 8.90574Z" fill="black"/>
<path d="M9.00001 3.12946C7.05881 3.12946 5.4798 4.70886 5.4798 6.64967C5.4798 8.59048 7.05881 10.1699 9.00001 10.1699C10.9412 10.1699 12.5202 8.59048 12.5202 6.64967C12.5202 4.70886 10.9412 3.12946 9.00001 3.12946ZM9.00001 9.38762C7.49062 9.38762 6.26207 8.15945 6.26207 6.64967C6.26207 5.13989 7.49062 3.91173 9.00001 3.91173C10.5094 3.91173 11.738 5.13989 11.738 6.64967C11.738 8.15945 10.5094 9.38762 9.00001 9.38762Z" fill="black"/>
</svg>
