<svg width="20" height="20" viewBox="0 0 20 20" fill="none" xmlns="http://www.w3.org/2000/svg">
<path d="M4.05291 13.2671C6.03304 15.5747 8.41667 17.3916 11.1373 18.6772C12.1731 19.1558 13.5583 19.7236 15.1017 19.8209C15.1974 19.825 15.2889 19.829 15.3846 19.829C16.4204 19.829 17.2524 19.4802 17.9304 18.7624C17.9346 18.7584 17.9429 18.7502 17.9471 18.7421C18.1883 18.4582 18.4629 18.2027 18.7499 17.931C18.9455 17.7485 19.1451 17.5579 19.3365 17.3632C20.2226 16.4629 20.2226 15.3192 19.3282 14.4473L16.828 12.0099C16.4037 11.58 15.8962 11.3529 15.3638 11.3529C14.8313 11.3529 14.3196 11.58 13.8828 12.0058L12.3936 13.4577C12.2563 13.3807 12.1149 13.3117 11.9817 13.2468C11.8153 13.1657 11.6614 13.0887 11.5241 13.0035C10.168 12.164 8.93667 11.069 7.75941 9.66171C7.16454 8.92765 6.76518 8.3112 6.48647 7.68259C6.8775 7.33786 7.24358 6.97692 7.59717 6.62408C7.72197 6.49836 7.85092 6.37264 7.97988 6.24692C8.42915 5.80891 8.67043 5.30197 8.67043 4.78691C8.67043 4.27185 8.43331 3.76491 7.97988 3.3269L6.74022 2.11834C6.59463 1.9764 6.45735 1.83851 6.31591 1.69656C6.04136 1.42078 5.75432 1.13689 5.47145 0.881394C5.04297 0.471781 4.53962 0.256836 4.00715 0.256836C3.47884 0.256836 2.97133 0.471781 2.52622 0.88545L0.970403 2.40223C0.404653 2.95379 0.084338 3.62296 0.0177792 4.39757C-0.0612595 5.36686 0.121777 6.39697 0.596009 7.64203C1.324 9.56843 2.42222 11.3569 4.05291 13.2671ZM1.0328 4.48274C1.08272 3.94335 1.29488 3.49318 1.69423 3.10385L3.24172 1.59517C3.483 1.36806 3.74924 1.25045 4.00715 1.25045C4.26091 1.25045 4.51882 1.36806 4.75594 1.60329C5.03465 1.85473 5.29673 2.11834 5.5796 2.39818C5.72104 2.54012 5.86664 2.68207 6.01224 2.82807L7.25189 4.03663C7.50981 4.28807 7.64293 4.54358 7.64293 4.79502C7.64293 5.04647 7.50981 5.30197 7.25189 5.55341C7.12294 5.67914 6.99398 5.80891 6.86502 5.93464C6.47815 6.31586 6.11623 6.67681 5.71688 7.02153C5.70856 7.02964 5.7044 7.0337 5.69608 7.04181C5.35081 7.37842 5.40489 7.69881 5.48809 7.94214C5.49225 7.95431 5.49641 7.96242 5.50057 7.97459C5.82088 8.72487 6.26599 9.43865 6.9607 10.2903C8.20868 11.7909 9.52322 12.9548 10.9709 13.8511C11.1497 13.9647 11.3411 14.0539 11.52 14.1431C11.6864 14.2242 11.8403 14.3013 11.9776 14.3864C11.9942 14.3946 12.0067 14.4027 12.0233 14.4108C12.1606 14.4797 12.2937 14.5122 12.4268 14.5122C12.7596 14.5122 12.976 14.3053 13.0467 14.2364L14.6025 12.7196C14.8438 12.4844 15.1058 12.3587 15.3638 12.3587C15.6799 12.3587 15.9378 12.5493 16.1001 12.7196L18.6085 15.1611C19.1077 15.6477 19.1035 16.175 18.596 16.69C18.4213 16.8725 18.2383 17.0469 18.0427 17.2294C17.7516 17.5052 17.4479 17.7891 17.1733 18.1095C16.6949 18.6124 16.125 18.8476 15.3887 18.8476C15.318 18.8476 15.2431 18.8435 15.1724 18.8395C13.8079 18.7543 12.5392 18.2352 11.5865 17.7931C8.99906 16.5724 6.72774 14.8407 4.8433 12.6426C3.29164 10.8216 2.2475 9.12637 1.55695 7.30947C1.12848 6.19419 0.966243 5.29791 1.0328 4.48274Z" fill="white"/>
</svg>
