<svg width="20" height="15" viewBox="0 0 20 15" fill="none" xmlns="http://www.w3.org/2000/svg">
<path d="M18.2422 0.561523H1.75781C0.786602 0.561523 0 1.33608 0 2.28174V12.603C0 13.5543 0.792383 14.3232 1.75781 14.3232H18.2422C19.2053 14.3232 20 13.5575 20 12.603V2.28174C20 1.33776 19.2165 0.561523 18.2422 0.561523ZM17.996 1.70833C17.6369 2.05792 11.4564 8.07438 11.243 8.28211C10.9109 8.60704 10.4695 8.78594 10 8.78594C9.53047 8.78594 9.08906 8.607 8.75594 8.28104C8.61242 8.14132 2.50012 2.19129 2.00398 1.70833H17.996ZM1.17188 12.3696V2.51588L6.23586 7.44543L1.17188 12.3696ZM2.00473 13.1764L7.06672 8.2542L7.9284 9.09301C8.48176 9.63454 9.21746 9.93275 10 9.93275C10.7825 9.93275 11.5182 9.63454 12.0705 9.09409L12.9333 8.2542L17.9953 13.1764H2.00473ZM18.8281 12.3696L13.7641 7.44543L18.8281 2.51588V12.3696Z" fill="white"/>
</svg>
