<svg width="20" height="20" viewBox="0 0 20 20" fill="none" xmlns="http://www.w3.org/2000/svg">
<g clip-path="url(#clip0)">
<path d="M9.99991 0.599976C5.92603 0.599976 2.61182 3.74848 2.61182 7.61866C2.61182 8.89276 3.21329 10.2631 3.2385 10.3209C3.43276 10.7589 3.81608 11.4393 4.09248 11.8381L9.1581 19.1297C9.3654 19.4286 9.67223 19.6 9.99991 19.6C10.3276 19.6 10.6344 19.4286 10.8417 19.1301L15.9078 11.8381C16.1846 11.4393 16.5675 10.7589 16.7618 10.3209C16.787 10.2635 17.388 8.89317 17.388 7.61866C17.388 3.74848 14.0738 0.599976 9.99991 0.599976ZM15.9604 10.0005C15.787 10.3931 15.4302 11.026 15.182 11.3836L10.1159 18.6756C10.016 18.8197 9.98426 18.8197 9.88431 18.6756L4.81825 11.3836C4.5701 11.026 4.21329 10.3927 4.03989 10.0001C4.0325 9.98314 3.481 8.72184 3.481 7.61866C3.481 4.20387 6.40539 1.4257 9.99991 1.4257C13.5944 1.4257 16.5188 4.20387 16.5188 7.61866C16.5188 8.72349 15.966 9.98809 15.9604 10.0005Z" fill="white"/>
<path d="M9.99997 3.90332C7.84308 3.90332 6.08862 5.57046 6.08862 7.61909C6.08862 9.66772 7.84308 11.3349 9.99997 11.3349C12.1569 11.3349 13.9113 9.66772 13.9113 7.61909C13.9113 5.57046 12.1569 3.90332 9.99997 3.90332ZM9.99997 10.5091C8.32287 10.5091 6.95781 9.21275 6.95781 7.61909C6.95781 6.02544 8.32287 4.72905 9.99997 4.72905C11.6771 4.72905 13.0421 6.02544 13.0421 7.61909C13.0421 9.21275 11.6771 10.5091 9.99997 10.5091Z" fill="white"/>
</g>
<defs>
<clipPath id="clip0">
<rect width="20" height="19" fill="white" transform="translate(0 0.599976)"/>
</clipPath>
</defs>
</svg>
