<svg width="70" height="71" fill="none" xmlns="http://www.w3.org/2000/svg"><g clip-path="url(#clip0)" fill="#fff"><path d="M56.919 32.086v-.001c-.203-.74-.685-1.34-1.323-1.642-7.707-3.532-7.9-4.039-9.392-4.039-.58 0-1.144.129-1.679.382l-7.712 3.657c-.64.303-1.121.9-1.324 1.643-.25.92-.67 2.822-.67 5.207 0 6.399 2.912 12.296 9.055 16.716 1.422 1.023 3.236 1.024 4.66 0 6.156-4.43 9.055-10.332 9.055-16.716 0-2.385-.42-4.286-.67-5.207zm-9.59 20.247c-.702.504-1.546.506-2.249 0-5.594-4.026-8.196-9.33-8.196-15.04 0-2.145.375-3.844.598-4.665.05-.184.147-.287.215-.32 8.067-3.76 7.785-3.839 8.507-3.839.718 0 .448.083 8.507 3.84.068.032.165.135.215.318.223.822.598 2.521.598 4.666 0 5.7-2.592 11.006-8.196 15.04z"/><path d="M58.675.003H22.752a4.914 4.914 0 00-4.908 4.908v46.882H11.92a5.381 5.381 0 00-5.375 5.375v6.187a6.654 6.654 0 006.647 6.647H56.09c4.061 0 7.365-3.304 7.365-7.365V4.783a4.786 4.786 0 00-4.78-4.78zm-44.264 67.79c-3.084.763-5.801-1.532-5.801-4.438v-6.187a3.314 3.314 0 013.31-3.31h5.924v.035l.005 9.462a4.59 4.59 0 01-3.438 4.438zm46.98-5.156a5.307 5.307 0 01-5.302 5.301H18.08c2.226-2.338 1.8-4.975 1.835-6.32v-8.793c0-.037-.003-.073-.006-.108V4.91a2.847 2.847 0 012.843-2.844h35.924a2.718 2.718 0 012.716 2.716v57.854z"/><path d="M52.283 35.542a1.032 1.032 0 00-1.452.156c-6.915 8.533-6.462 8.096-6.597 8.105-.133.008.003.033-2.75-2.545a1.033 1.033 0 00-1.422 1.497l2.637 2.504c.412.391.961.609 1.526.609a2.22 2.22 0 001.724-.825l6.49-8.049a1.033 1.033 0 00-.156-1.452zM50.435 7.891H24.143a1.032 1.032 0 100 2.065h26.292a1.032 1.032 0 000-2.065zm6.12 0h-1.99a1.032 1.032 0 100 2.065h1.99a1.032 1.032 0 100-2.065zm.001 52.009H32.053a1.032 1.032 0 100 2.065h24.503a1.032 1.032 0 100-2.065zm-28.633 0h-3.78a1.032 1.032 0 100 2.065h3.78a1.032 1.032 0 100-2.065zm28.633-44.576H24.143a1.032 1.032 0 100 2.065h32.413a1.032 1.032 0 100-2.065zm-.001 7.433H37.696a1.032 1.032 0 100 2.065h18.86a1.032 1.032 0 100-2.065zm-22.988 0h-9.424a1.032 1.032 0 100 2.065h9.424a1.032 1.032 0 100-2.065zm-1.799 7.433h-7.625a1.032 1.032 0 100 2.065h7.625a1.032 1.032 0 100-2.065zm0 7.433h-7.625a1.032 1.032 0 100 2.065h7.625a1.032 1.032 0 100-2.065zm1.789 7.433h-9.414a1.032 1.032 0 100 2.065h9.414a1.032 1.032 0 100-2.065zm3.338 7.434H24.143a1.032 1.032 0 100 2.064h12.752a1.032 1.032 0 100-2.065z"/></g><defs><clipPath id="clip0"><path fill="#fff" transform="translate(0 .003)" d="M0 0h70v70H0z"/></clipPath></defs></svg>