<svg width="11" height="13" fill="none" xmlns="http://www.w3.org/2000/svg"><g clip-path="url(#clip0)"><path d="M2.138 2.655C2.774 1.466 3.905.74 5.161.712a3.62 3.62 0 01.162 0c1.256.028 2.387.754 3.023 1.943a4.237 4.237 0 01.048 3.905l-2.6 5.152-.004.007a.62.62 0 01-.548.344.62.62 0 01-.548-.344l-.004-.007-2.6-5.152a4.238 4.238 0 01.048-3.905zm3.104 3.2c.813 0 1.474-.716 1.474-1.596 0-.88-.661-1.597-1.474-1.597S3.768 3.38 3.768 4.26s.661 1.596 1.474 1.596z" fill="#fff"/></g><defs><clipPath id="clip0"><path fill="#fff" transform="matrix(-1 0 0 1 10.484 .711)" d="M0 0h10.484v11.351H0z"/></clipPath></defs></svg>