<svg width="261" height="77" viewBox="0 0 261 77" fill="none" xmlns="http://www.w3.org/2000/svg">
<path d="M75.0954 23.6723V22.6723H74.0954H60.9426V16.499H97.4817V22.6723H84.3289H83.3289V23.6723V57.846H75.0954V23.6723Z" stroke="white" stroke-width="2"/>
<path d="M131.815 49.1715L131.557 48.5602H130.894H110.361H109.697L109.439 49.1718L105.781 57.8496H97.5113L116.312 16.499H125.134L143.998 57.8496H135.477L131.815 49.1715ZM127.669 42.9414H129.177L128.59 41.5523L121.578 24.9538L120.657 22.7732L119.735 24.9538L112.723 41.5523L112.136 42.9414H113.645H127.669Z" stroke="white" stroke-width="2"/>
<path d="M160.397 51.6727H181.572V57.846H151.16V16.499H159.397V50.6727V51.6727H160.397Z" stroke="white" stroke-width="2"/>
<path d="M195.598 26.0296L189.81 22.3771C191.363 20.4132 193.397 18.8313 195.934 17.6388C198.814 16.2854 202.14 15.5986 205.933 15.5986C209.112 15.5986 211.849 16.1076 214.165 17.0986L214.166 17.0991C216.484 18.0879 218.242 19.4666 219.492 21.2172C220.726 22.95 221.36 25.0035 221.36 27.4166C221.36 29.6222 220.886 31.6785 219.945 33.6018L219.944 33.6025C219.016 35.5022 217.166 37.7525 214.293 40.3621L214.293 40.362L214.287 40.3683L204.116 49.7801L202.242 51.5141H204.795H222.811V57.6909H191.389V52.6253L208.126 37.1302L208.13 37.127C209.967 35.4097 211.29 33.8619 212.001 32.4886C212.695 31.1504 213.06 29.7876 213.06 28.4067C213.06 26.412 212.355 24.7698 210.872 23.6227C209.425 22.5035 207.411 22.0203 204.986 22.0203C202.92 22.0203 201.025 22.4044 199.319 23.1972C197.881 23.8655 196.638 24.813 195.598 26.0296Z" stroke="white" stroke-width="2"/>
<path d="M257.843 51.8721L257.843 51.8728C256.617 53.8076 254.728 55.3955 252.107 56.6098C249.515 57.811 246.288 58.4362 242.386 58.4362C239.355 58.4362 236.378 58.0444 233.45 57.2638C230.872 56.5736 228.665 55.6354 226.814 54.4587L229.864 48.5772C231.412 49.5724 233.143 50.3619 235.047 50.9477C237.353 51.6574 239.715 52.0145 242.133 52.0145C244.811 52.0145 247.052 51.5097 248.747 50.3955C250.503 49.2404 251.408 47.5497 251.408 45.4409C251.408 43.3591 250.573 41.695 248.881 40.606C247.264 39.5657 244.966 39.1157 242.133 39.1157H238.457V33.8748L247.298 24.0642L248.803 22.3948H246.555H228.727V16.3403H257.684V21.4606L247.955 32.323L246.733 33.6884L248.543 33.9777C252.264 34.5724 255.008 35.9124 256.881 37.9177C258.758 39.9282 259.708 42.4108 259.708 45.4409C259.708 47.7724 259.089 49.9088 257.843 51.8721Z" stroke="white" stroke-width="2"/>
<path d="M156.11 75.4154C160.386 35.1001 189.826 51.5114 220.762 48.5518C221.023 89.5692 185.845 72.1389 156.11 75.4154Z" fill="#A91841"/>
<path d="M175.732 55.7462C176.743 56.2143 177.521 56.884 178.069 57.7445C178.616 58.6087 178.888 59.6312 178.888 60.8122C178.888 61.9788 178.616 62.9977 178.069 63.8691C177.521 64.7404 176.746 65.4065 175.732 65.8674C174.722 66.3282 173.532 66.5587 172.158 66.5587H169.04V70.9441H165.455V55.0405H172.158C173.532 55.0441 174.722 55.2782 175.732 55.7462ZM174.417 62.8465C174.979 62.3676 175.259 61.6907 175.259 60.8122C175.259 59.9193 174.979 59.2316 174.417 58.7563C173.855 58.281 173.036 58.0398 171.96 58.0398H169.04V63.5594H171.96C173.036 63.563 173.855 63.3254 174.417 62.8465Z" fill="white"/>
<path d="M191.299 70.9475L188.313 66.5189H188.137H185.018V70.9475H181.433V55.0439H188.137C189.511 55.0439 190.701 55.278 191.711 55.7497C192.721 56.2177 193.5 56.8874 194.047 57.748C194.594 58.6121 194.866 59.6346 194.866 60.8156C194.866 61.9966 194.591 63.0156 194.036 63.8725C193.481 64.7294 192.699 65.3847 191.678 65.8384L195.153 70.9511H191.299V70.9475ZM190.392 58.7561C189.83 58.2772 189.011 58.0396 187.935 58.0396H185.015V63.5844H187.935C189.011 63.5844 189.83 63.3432 190.392 62.8571C190.954 62.371 191.233 61.6905 191.233 60.812C191.233 59.9191 190.954 59.235 190.392 58.7561Z" fill="white"/>
<path d="M200.846 70.1512C199.557 69.4383 198.547 68.459 197.816 67.2096C197.085 65.9602 196.721 64.556 196.721 62.9934C196.721 61.4343 197.085 60.0265 197.816 58.7771C198.547 57.5277 199.557 56.5484 200.846 55.8355C202.135 55.1226 203.586 54.7661 205.195 54.7661C206.804 54.7661 208.247 55.1226 209.533 55.8355C210.815 56.5484 211.829 57.5277 212.563 58.7771C213.302 60.0265 213.669 61.4307 213.669 62.9934C213.669 64.5524 213.302 65.9602 212.563 67.2096C211.825 68.459 210.815 69.4419 209.533 70.1512C208.251 70.8642 206.804 71.2206 205.195 71.2206C203.586 71.217 202.139 70.8642 200.846 70.1512ZM207.674 67.4364C208.413 67.0044 208.989 66.4031 209.412 65.629C209.834 64.8548 210.044 63.9799 210.044 62.9934C210.044 62.0104 209.834 61.1319 209.412 60.3578C208.989 59.5836 208.413 58.9824 207.674 58.5503C206.936 58.1182 206.11 57.9022 205.195 57.9022C204.28 57.9022 203.454 58.1182 202.716 58.5503C201.977 58.9824 201.401 59.5836 200.978 60.3578C200.559 61.1319 200.346 62.0104 200.346 62.9934C200.346 63.9799 200.556 64.8548 200.978 65.629C201.401 66.4031 201.977 67.0044 202.716 67.4364C203.454 67.8685 204.28 68.0845 205.195 68.0845C206.11 68.0845 206.936 67.8685 207.674 67.4364Z" fill="white"/>
<path d="M46.2821 21.9114V26.3617L54.7304 31.2728V16.795L27.7619 0.866211L0.36731 16.8706V34.4053L29.3855 51.4359L37.4665 47.1152L13.5908 31.6329L9.55027 29.1125L8.81563 28.7524V25.1519V22.6315V21.1913L13.5908 18.6709L21.6718 13.9902L27.1816 10.7497L46.2821 21.5513V21.9114Z" fill="white"/>
<path d="M17.6313 25.1519L25.345 20.4712L54.7305 37.0337V55.1264L27.5489 70.8788L0 54.698L0.367318 40.6342L9.18296 44.9549V49.9957L25.345 59.7171L27.3946 61.413L31.5894 59.3571L41.8743 53.5962L45.9148 51.0758V46.7552V42.7946V42.0745L17.6313 25.1519Z" fill="white"/>
</svg>
