<svg width="212" height="63" viewBox="0 0 212 63" fill="none" xmlns="http://www.w3.org/2000/svg">
<path d="M60.2521 18.7888H48.7435V12.0552H80.0823V18.7888H68.5737V47.7669H60.2521V18.7888Z" fill="#B1B1B1"/>
<path d="M106.439 40.1167H89.742L86.5579 47.7699H78.0303L94.0581 12.0552H102.278L118.36 47.7699H109.626L106.439 40.1167ZM103.816 33.8399L98.1144 20.1651L92.4123 33.8399H103.816Z" fill="#B1B1B1"/>
<path d="M122.105 12.0552H130.43V41.0333H148.462V47.7669H122.105V12.0552Z" fill="#B1B1B1"/>
<path d="M181.996 40.9058V47.6394H154.818V42.2821L168.69 29.2718C170.162 27.8776 171.157 26.6792 171.671 25.6736C172.184 24.671 172.441 23.6773 172.441 22.6895C172.441 21.2597 171.954 20.1651 170.978 19.3998C170.001 18.6345 168.57 18.2519 166.688 18.2519C165.111 18.2519 163.689 18.5485 162.423 19.1447C161.157 19.741 160.093 20.6338 159.239 21.8233L153.176 17.9463C154.579 15.8729 156.515 14.2473 158.982 13.0726C161.449 11.898 164.275 11.3136 167.459 11.3136C170.129 11.3136 172.468 11.7467 174.472 12.6158C176.477 13.482 178.033 14.7071 179.147 16.2881C180.258 17.8692 180.817 19.7321 180.817 21.8738C180.817 23.8137 180.404 25.6321 179.583 27.3318C178.762 29.0345 177.169 30.9715 174.804 33.1488L166.533 40.9028H181.996V40.9058Z" fill="#FFE500"/>
<path d="M209.482 29.963C211.161 31.7844 212 34.0358 212 36.7233C212 38.7997 211.453 40.713 210.357 42.4632C209.261 44.2163 207.591 45.6194 205.348 46.6724C203.105 47.7254 200.357 48.2535 197.101 48.2535C194.565 48.2535 192.074 47.9212 189.625 47.2597C187.176 46.5953 185.094 45.652 183.382 44.4269L186.62 38.0997C187.988 39.1201 189.574 39.9121 191.372 40.4728C193.17 41.0334 195.01 41.3152 196.895 41.3152C198.983 41.3152 200.629 40.9147 201.827 40.1168C203.024 39.3189 203.625 38.1857 203.625 36.7233C203.625 33.7985 201.382 32.3361 196.895 32.3361H193.093V26.878L200.491 18.5604H185.18V11.9247H210.354V17.2819L202.236 26.4657C205.387 26.9759 207.803 28.1417 209.482 29.963Z" fill="#FFE500"/>
<path d="M126.944 61.418C130.421 28.2039 154.361 41.7244 179.517 39.2861C179.729 73.0786 151.123 58.7186 126.944 61.418Z" fill="#A91841"/>
<path d="M142.9 45.2133C143.722 45.5989 144.355 46.1507 144.8 46.8596C145.245 47.5715 145.466 48.414 145.466 49.3869C145.466 50.348 145.245 51.1875 144.8 51.9054C144.355 52.6232 143.725 53.172 142.9 53.5517C142.079 53.9314 141.111 54.1212 139.994 54.1212H137.458V57.7342H134.543V44.6319H139.994C141.111 44.6349 142.079 44.8277 142.9 45.2133ZM141.831 51.0629C142.288 50.6684 142.515 50.1107 142.515 49.3869C142.515 48.6513 142.288 48.0847 141.831 47.6932C141.374 47.3016 140.708 47.1029 139.833 47.1029H137.458V51.6502H139.833C140.708 51.6532 141.374 51.4574 141.831 51.0629Z" fill="white"/>
<path d="M155.559 57.7372L153.131 54.0886H152.987H150.451V57.7372H147.536V44.6349H152.987C154.104 44.6349 155.072 44.8277 155.894 45.2163C156.715 45.6019 157.348 46.1536 157.793 46.8626C158.238 47.5745 158.459 48.417 158.459 49.3899C158.459 50.3629 158.235 51.2024 157.784 51.9083C157.333 52.6143 156.697 53.1542 155.867 53.528L158.692 57.7402H155.559V57.7372ZM154.821 47.6932C154.364 47.2987 153.698 47.1029 152.823 47.1029H150.448V51.671H152.823C153.698 51.671 154.364 51.4723 154.821 51.0718C155.278 50.6714 155.505 50.1107 155.505 49.387C155.505 48.6513 155.278 48.0877 154.821 47.6932Z" fill="white"/>
<path d="M163.322 57.0811C162.274 56.4938 161.452 55.687 160.858 54.6576C160.263 53.6283 159.968 52.4715 159.968 51.1841C159.968 49.8997 160.263 48.7398 160.858 47.7105C161.452 46.6812 162.274 45.8743 163.322 45.287C164.37 44.6997 165.55 44.406 166.858 44.406C168.167 44.406 169.341 44.6997 170.386 45.287C171.428 45.8743 172.253 46.6812 172.85 47.7105C173.451 48.7398 173.749 49.8967 173.749 51.1841C173.749 52.4685 173.451 53.6283 172.85 54.6576C172.25 55.687 171.428 56.4968 170.386 57.0811C169.344 57.6685 168.167 57.9621 166.858 57.9621C165.55 57.9592 164.373 57.6685 163.322 57.0811ZM168.875 54.8445C169.475 54.4886 169.944 53.9932 170.287 53.3554C170.631 52.7177 170.801 51.9968 170.801 51.1841C170.801 50.3743 170.631 49.6505 170.287 49.0127C169.944 48.375 169.475 47.8796 168.875 47.5236C168.274 47.1677 167.602 46.9897 166.858 46.9897C166.115 46.9897 165.443 47.1677 164.842 47.5236C164.242 47.8796 163.773 48.375 163.429 49.0127C163.089 49.6505 162.916 50.3743 162.916 51.1841C162.916 51.9968 163.086 52.7177 163.429 53.3554C163.773 53.9932 164.242 54.4886 164.842 54.8445C165.443 55.2005 166.115 55.3785 166.858 55.3785C167.602 55.3785 168.274 55.2005 168.875 54.8445Z" fill="white"/>
<path d="M37.6353 17.3382V21.0046L44.5052 25.0507V13.1231L22.5752 0L0.298706 13.1854V27.6314L23.8954 41.6622L30.4666 38.1026L11.0516 25.3473L7.76602 23.2709L7.16863 22.9743V20.0079V17.9315V16.745L11.0516 14.6685L17.6229 10.8123L22.1033 8.14259L37.6353 17.0416V17.3382Z" fill="#FFE500"/>
<path d="M14.3372 19.9809L20.6098 16.1247L44.5052 29.7698V44.6757L22.4019 57.6534L0 44.3227L0.298692 32.7362L7.46731 36.2958V40.4487L20.6098 48.4578L22.2765 49.8549L25.6876 48.1611L34.0509 43.415L37.3366 41.3386V37.779V34.516V33.9227L14.3372 19.9809Z" fill="#FFE500"/>
</svg>
