<?xml version="1.0" standalone="no"?>
<!DOCTYPE svg PUBLIC "-//W3C//DTD SVG 20010904//EN"
 "http://www.w3.org/TR/2001/REC-SVG-20010904/DTD/svg10.dtd">
<svg version="1.0" xmlns="http://www.w3.org/2000/svg"
 width="512.000000pt" height="512.000000pt" viewBox="0 0 512.000000 512.000000"
 preserveAspectRatio="xMidYMid meet">
<metadata>
Created by potrace 1.14, written by Peter Selinger 2001-2017
</metadata>
<g transform="translate(0.000000,512.000000) scale(0.100000,-0.100000)"
fill="#000000" stroke="none">
<path d="M2530 5077 c-30 -19 -134 -80 -230 -137 -96 -56 -191 -113 -210 -125
-19 -12 -125 -75 -235 -140 -110 -65 -213 -126 -230 -136 -16 -10 -50 -30 -75
-44 -25 -14 -54 -31 -65 -38 -36 -23 -139 -84 -340 -202 -110 -65 -228 -135
-262 -156 -34 -22 -65 -39 -69 -39 -3 0 -29 -15 -57 -34 -29 -18 -71 -44 -94
-57 -32 -18 -43 -30 -44 -49 -1 -35 -1 -1210 0 -1237 1 -18 58 -56 319 -211
377 -225 364 -218 438 -262 33 -19 216 -128 408 -242 191 -114 352 -208 356
-208 5 0 10 -3 12 -7 2 -5 15 -15 31 -23 15 -8 96 -56 180 -106 83 -50 163
-97 176 -105 14 -8 30 -18 35 -22 6 -4 38 -24 71 -43 l60 -35 35 19 c57 30
191 102 250 135 30 16 75 41 100 54 99 52 175 95 184 103 5 5 -56 51 -138 104
-80 52 -219 143 -308 202 -90 59 -181 119 -203 133 -22 14 -41 29 -43 34 -2 4
-8 7 -13 7 -6 0 -15 5 -22 10 -7 6 -61 43 -122 82 -60 40 -243 159 -405 266
-433 286 -591 388 -710 460 l-85 51 0 270 c0 165 4 274 10 279 6 6 46 29 90
52 142 75 288 157 375 208 47 28 129 76 183 107 54 31 211 124 350 207 138 83
266 158 285 168 l33 18 87 -50 c48 -28 102 -59 121 -70 18 -10 111 -63 205
-117 94 -55 187 -108 206 -119 19 -11 75 -43 123 -71 49 -28 93 -51 98 -51 5
0 9 -4 9 -8 0 -4 16 -14 35 -21 19 -7 35 -16 35 -20 0 -4 16 -13 35 -21 19 -8
35 -17 35 -22 0 -4 4 -8 9 -8 6 0 36 -15 68 -34 32 -19 81 -47 109 -62 27 -16
84 -48 125 -72 l74 -43 -1 -167 c-2 -159 4 -202 27 -202 5 0 38 -17 72 -39
142 -88 388 -231 397 -231 6 0 10 -4 10 -10 0 -5 5 -10 10 -10 6 0 28 -11 50
-25 l40 -25 0 527 0 528 -33 21 c-17 12 -421 255 -897 539 -476 285 -881 528
-900 540 -36 23 -109 65 -113 65 -2 0 -27 -15 -57 -33z"/>
<path d="M2264 3599 c-82 -51 -204 -125 -271 -167 -68 -41 -123 -78 -123 -82
0 -6 127 -88 195 -126 11 -6 101 -61 200 -121 376 -230 781 -477 807 -492 122
-71 814 -496 818 -502 7 -10 6 -656 0 -662 -3 -2 -68 -44 -145 -92 -306 -193
-1139 -655 -1180 -655 -6 0 -42 26 -81 59 -38 32 -141 102 -229 156 -88 53
-176 107 -195 120 -19 12 -150 92 -290 178 -140 85 -313 191 -385 235 l-130
80 -3 186 -2 185 -312 156 c-171 85 -313 153 -316 150 -7 -6 -8 -38 -16 -395
-3 -140 -9 -338 -11 -440 l-6 -185 83 -50 c46 -27 87 -52 92 -54 5 -2 68 -40
140 -84 72 -44 147 -89 166 -99 19 -11 220 -131 445 -266 226 -135 422 -252
437 -261 15 -9 80 -47 144 -86 64 -38 138 -82 163 -97 25 -16 73 -44 106 -63
62 -37 65 -39 153 -93 l54 -33 72 42 c39 23 88 53 108 66 21 12 41 23 46 23 4
0 13 5 20 12 7 7 37 26 67 43 30 16 184 107 341 200 158 94 303 179 323 190
20 11 81 47 136 80 126 75 115 69 236 140 57 33 122 71 145 85 23 14 137 81
253 149 l211 124 -2 664 -3 664 -130 75 c-71 42 -159 92 -195 111 -36 20 -76
43 -90 53 -14 9 -38 24 -55 32 -16 8 -149 84 -295 168 -295 170 -840 483 -910
522 -25 14 -132 76 -239 137 -106 61 -194 111 -195 111 -1 0 -69 -41 -152 -91z"/>
</g>
</svg>
